<?xml version="1.0" standalone="no"?>
<!DOCTYPE svg PUBLIC "-//W3C//DTD SVG 20010904//EN"
 "http://www.w3.org/TR/2001/REC-SVG-20010904/DTD/svg10.dtd">
<svg version="1.0" xmlns="http://www.w3.org/2000/svg"
 width="204.000000pt" height="204.000000pt" viewBox="0 0 204.000000 204.000000"
 preserveAspectRatio="xMidYMid meet">
<metadata>
Created by potrace 1.13, written by Peter Selinger 2001-2015
</metadata>
<g transform="translate(0.000000,204.000000) scale(0.100000,-0.100000)"
fill="#000000" stroke="none">
<path d="M553 1838 c3 -7 27 -76 53 -153 45 -132 48 -147 52 -267 2 -71 7
-128 11 -129 3 0 21 -2 39 -3 l32 -4 0 117 c0 71 6 133 14 161 45 145 86 281
86 285 0 4 -19 5 -42 3 l-42 -3 -22 -87 c-34 -135 -33 -135 -66 -15 l-30 107
-45 0 c-32 0 -43 -4 -40 -12z"/>
<path d="M904 1699 c-45 -22 -54 -58 -54 -204 0 -110 3 -142 17 -165 34 -58
113 -68 165 -21 l33 29 3 151 3 152 -34 34 c-28 28 -42 35 -73 34 -22 0 -48
-5 -60 -10z m86 -85 c6 -14 10 -67 10 -119 0 -52 -4 -105 -10 -119 -11 -31
-45 -35 -60 -7 -14 28 -13 244 2 259 20 20 48 14 58 -14z"/>
<path d="M1173 1702 l-33 -3 0 -194 c0 -163 3 -196 16 -209 21 -22 56 -20 87
4 30 24 37 25 37 6 0 -13 65 -28 75 -17 3 2 5 96 5 207 0 221 1 216 -57 206
-23 -4 -23 -6 -23 -162 0 -139 -2 -159 -18 -173 -16 -15 -38 -22 -44 -14 -1 1
-4 81 -7 177 l-6 175 -32 -3z"/>
<path d="M625 1151 c-157 -8 -204 -40 -225 -151 -18 -97 -24 -318 -11 -445 16
-150 34 -189 106 -225 l50 -25 465 0 c351 0 474 3 501 13 51 18 89 63 106 124
21 77 29 355 13 485 -14 126 -27 159 -75 192 -31 21 -52 24 -177 32 -158 9
-581 9 -753 0z m115 -171 l0 -40 -45 0 -45 0 0 -240 0 -240 -45 0 -45 0 0 240
0 240 -45 0 -45 0 0 40 0 40 135 0 135 0 0 -40z m380 -47 c0 -86 0 -86 20 -68
29 26 79 24 102 -4 16 -20 18 -43 18 -185 0 -108 -4 -169 -13 -185 -18 -36
-49 -43 -93 -20 -46 23 -44 23 -44 3 0 -12 -9 -14 -37 -12 l-38 3 -3 278 -3
277 45 0 46 0 0 -87z m381 -66 c34 -21 50 -72 47 -144 l-3 -68 -73 -3 -73 -3
3 -57 c3 -51 5 -57 27 -60 28 -4 41 12 41 51 0 25 3 27 40 27 39 0 40 -1 40
-35 0 -20 -6 -48 -14 -63 -40 -77 -162 -71 -203 9 -19 37 -17 262 3 304 28 59
106 79 165 42z m-671 -162 c0 -162 1 -175 18 -175 38 0 42 19 42 187 l0 163
40 0 40 0 0 -210 0 -210 -40 0 c-33 0 -40 3 -40 20 0 18 -2 18 -37 -5 -36 -25
-64 -26 -88 -3 -6 5 -11 93 -13 208 l-3 200 40 0 41 0 0 -175z"/>
<path d="M1126 802 c-10 -16 -8 -254 2 -264 5 -5 18 -8 28 -6 17 3 19 15 19
138 0 131 -1 135 -22 138 -11 2 -24 -1 -27 -6z"/>
<path d="M1765 58 c-33 -11 -1469 -12 -1489 -1 -6 3 -5 0 2 -8 11 -12 131 -14
740 -14 658 0 730 2 762 17 39 18 31 22 -15 6z"/>
</g>
</svg>
